<?xml version="1.0" encoding="UTF-8"?>
<!DOCTYPE svg PUBLIC "-//W3C//DTD SVG 1.1//EN" "http://www.w3.org/Graphics/SVG/1.1/DTD/svg11.dtd">
<svg xmlns="http://www.w3.org/2000/svg" version="1.1" width="794px" height="860px" style="shape-rendering:geometricPrecision; text-rendering:geometricPrecision; image-rendering:optimizeQuality; fill-rule:evenodd; clip-rule:evenodd" xmlns:xlink="http://www.w3.org/1999/xlink">
<g><path style="opacity:0.997" fill="#e50c2d" d="M 534.5,-0.5 C 536.167,-0.5 537.833,-0.5 539.5,-0.5C 614.447,55.4132 649.614,130.413 645,224.5C 642.986,250.721 636.82,275.888 626.5,300C 637.125,312.066 645.625,325.566 652,340.5C 701.445,301.567 739.945,253.9 767.5,197.5C 781.386,232.707 790.053,269.041 793.5,306.5C 793.5,313.167 793.5,319.833 793.5,326.5C 756.537,373.969 712.537,413.469 661.5,445C 709.092,474.241 750.926,510.408 787,553.5C 787.667,554.5 787.667,555.5 787,556.5C 773.375,585.761 757.708,613.761 740,640.5C 707.456,595.621 668.123,557.954 622,527.5C 615.285,538.434 608.452,549.268 601.5,560C 647.757,590.757 685.757,629.59 715.5,676.5C 696.655,703.013 676.322,728.347 654.5,752.5C 629.345,702.009 592.678,662.009 544.5,632.5C 535.375,642.126 526.042,651.626 516.5,661C 567.017,689.688 602.684,731.188 623.5,785.5C 621.226,788.95 618.726,792.283 616,795.5C 594.576,817.426 572.743,838.759 550.5,859.5C 549.833,859.5 549.167,859.5 548.5,859.5C 539.813,793.651 504.313,749.318 442,726.5C 441.5,656.834 441.333,587.167 441.5,517.5C 472.045,514.658 502.045,508.991 531.5,500.5C 551.791,471.13 563.457,438.63 566.5,403C 566.333,400.167 566.167,397.333 566,394.5C 526.303,412.3 484.803,423.633 441.5,428.5C 441.167,378.829 441.5,329.162 442.5,279.5C 473.81,258.423 508.143,250.757 545.5,256.5C 566.449,188.8 550.782,130.967 498.5,83C 483.894,70.8573 467.561,61.5239 449.5,55C 474.27,31.0677 502.603,12.5677 534.5,-0.5 Z"/></g>
<g><path style="opacity:0.996" fill="#e50d2d" d="M 254.5,-0.5 C 256.167,-0.5 257.833,-0.5 259.5,-0.5C 291.166,12.3266 319.166,30.66 343.5,54.5C 303.621,70.8791 273.788,98.2124 254,136.5C 239.209,168.538 235.209,201.871 242,236.5C 243.25,243.516 245.417,250.182 248.5,256.5C 285.857,250.757 320.19,258.423 351.5,279.5C 352.5,329.162 352.833,378.829 352.5,428.5C 309.396,424.058 268.062,413.058 228.5,395.5C 227.224,415.511 230.391,434.844 238,453.5C 244.732,470.133 252.899,485.966 262.5,501C 291.934,509.52 321.934,515.02 352.5,517.5C 352.667,587.167 352.5,656.834 352,726.5C 289.68,749.323 254.18,793.657 245.5,859.5C 244.833,859.5 244.167,859.5 243.5,859.5C 218.063,835.897 193.396,811.397 169.5,786C 190.987,732.018 226.653,690.185 276.5,660.5C 267.472,651.14 258.472,641.807 249.5,632.5C 201.322,662.009 164.655,702.009 139.5,752.5C 130.51,742.674 121.676,732.674 113,722.5C 100.923,707.591 89.4229,692.258 78.5,676.5C 108.076,629.59 146.076,590.924 192.5,560.5C 185.667,549.5 178.833,538.5 172,527.5C 125.823,558.01 86.4902,595.676 54,640.5C 37.2291,615.305 22.2291,588.972 9,561.5C 7.39233,558.649 6.72567,555.649 7,552.5C 43.103,510.375 84.603,474.875 131.5,446C 81.0586,413.728 37.0586,374.228 -0.5,327.5C -0.5,326.5 -0.5,325.5 -0.5,324.5C 1.23212,281.511 9.89879,239.844 25.5,199.5C 53.4486,255.295 91.9486,302.629 141,341.5C 147.829,326.347 156.663,312.514 167.5,300C 148.054,253.039 143.221,204.539 153,154.5C 167.323,89.8022 201.156,38.1355 254.5,-0.5 Z"/></g>
</svg>
