<?xml version="1.0" encoding="UTF-8"?>
<!DOCTYPE svg PUBLIC "-//W3C//DTD SVG 1.1//EN" "http://www.w3.org/Graphics/SVG/1.1/DTD/svg11.dtd">
<svg xmlns="http://www.w3.org/2000/svg" version="1.1" width="2992px" height="1285px" style="shape-rendering:geometricPrecision; text-rendering:geometricPrecision; image-rendering:optimizeQuality; fill-rule:evenodd; clip-rule:evenodd" xmlns:xlink="http://www.w3.org/1999/xlink">
<g><path style="opacity:0.986" fill="#eb1c2c" d="M 506.5,294.5 C 533.941,303.776 557.941,318.61 578.5,339C 525.48,361.553 497.146,401.72 493.5,459.5C 493.612,473.171 495.779,486.504 500,499.5C 500.388,500.428 501.055,501.095 502,501.5C 532.185,496.87 559.852,503.203 585,520.5C 585.5,560.499 585.667,600.499 585.5,640.5C 550.472,637.035 516.972,628.035 485,613.5C 484.886,638.044 490.886,661.044 503,682.5C 506.366,687.703 509.532,693.036 512.5,698.5C 536.305,705.745 560.639,710.079 585.5,711.5C 585.667,767.834 585.5,824.168 585,880.5C 535.007,899.16 505.841,934.826 497.5,987.5C 476.863,968.53 456.863,948.863 437.5,928.5C 454.337,885.335 482.67,852.001 522.5,828.5C 523.521,827.998 523.688,827.332 523,826.5C 515.635,819.47 508.635,812.136 502,804.5C 463.233,828.432 433.733,860.765 413.5,901.5C 395.369,882.389 379.036,861.889 364.5,840C 387.896,802.603 418.063,771.77 455,747.5C 455.667,746.5 455.667,745.5 455,744.5C 449.604,736.766 444.604,728.766 440,720.5C 402.525,744.806 370.691,775.14 344.5,811.5C 329.586,789.515 316.586,766.348 305.5,742C 334.578,707.246 368.245,677.912 406.5,654C 366.062,628.572 330.895,597.072 301,559.5C 301.47,523.486 308.47,488.819 322,455.5C 344.672,500.478 375.672,538.812 415,570.5C 420.06,558.037 426.894,546.703 435.5,536.5C 409.39,466.983 417.223,401.65 459,340.5C 472.441,322.556 488.275,307.223 506.5,294.5 Z"/></g>
<g><path style="opacity:0.986" fill="#eb1c2c" d="M 731.5,294.5 C 733.655,294.372 735.655,294.872 737.5,296C 796.966,340.782 824.799,400.615 821,475.5C 819.468,496.627 814.635,516.96 806.5,536.5C 814.524,546.184 820.858,556.851 825.5,568.5C 826.552,568.649 827.552,568.483 828.5,568C 866.928,537.09 896.928,499.59 918.5,455.5C 919.167,454.167 919.833,454.167 920.5,455.5C 933.749,488.576 940.249,522.91 940,558.5C 910.47,596.703 875.304,628.536 834.5,654C 873.32,677.468 907.32,706.801 936.5,742C 924.894,766.056 911.894,789.223 897.5,811.5C 871.309,775.14 839.475,744.806 802,720.5C 797.396,728.766 792.396,736.766 787,744.5C 786.333,745.5 786.333,746.5 787,747.5C 823.937,771.77 854.104,802.603 877.5,840C 872.404,848.1 866.904,855.933 861,863.5C 850.393,876.393 839.56,889.06 828.5,901.5C 808.165,860.848 778.665,828.515 740,804.5C 732.283,811.715 725.117,819.381 718.5,827.5C 758.659,851.33 787.326,884.996 804.5,928.5C 785.319,948.515 765.652,968.015 745.5,987C 744.552,987.483 743.552,987.649 742.5,987.5C 735.935,934.398 707.435,898.732 657,880.5C 656.5,824.168 656.333,767.834 656.5,711.5C 681.356,709.762 705.689,705.262 729.5,698C 745.476,674.572 754.809,648.739 757.5,620.5C 757.167,618.167 756.833,615.833 756.5,613.5C 724.606,627.798 691.272,636.798 656.5,640.5C 656.333,600.499 656.5,560.499 657,520.5C 682.148,503.203 709.815,496.87 740,501.5C 754.765,459.401 749.098,420.067 723,383.5C 707.129,363.469 687.295,348.636 663.5,339C 683.393,319.89 706.06,305.056 731.5,294.5 Z"/></g>
<g><path style="opacity:0.987" fill="#323e47" d="M 1503.5,523.5 C 1572.82,523.055 1622.66,553.721 1653,615.5C 1675.3,674.433 1666.96,728.433 1628,777.5C 1591.89,815.954 1547.39,832.787 1494.5,828C 1443.46,821.915 1404.62,797.082 1378,753.5C 1356.71,713.177 1352.71,671.177 1366,627.5C 1390.15,564.18 1435.99,529.513 1503.5,523.5 Z M 1506.5,593.5 C 1554.5,594.341 1582.67,618.341 1591,665.5C 1594.42,694.569 1585.92,719.402 1565.5,740C 1537.08,761.692 1506.41,765.359 1473.5,751C 1449.64,737.803 1435.81,717.637 1432,690.5C 1428.14,662.068 1435.64,637.235 1454.5,616C 1469.4,602.714 1486.73,595.214 1506.5,593.5 Z"/></g>
<g><path style="opacity:0.978" fill="#323e47" d="M 1013.5,528.5 C 1038.17,528.5 1062.83,528.5 1087.5,528.5C 1087.5,627.167 1087.5,725.833 1087.5,824.5C 1062.83,824.5 1038.17,824.5 1013.5,824.5C 1013.5,725.833 1013.5,627.167 1013.5,528.5 Z"/></g>
<g><path style="opacity:0.99" fill="#323e47" d="M 1124.5,528.5 C 1166.5,528.333 1208.5,528.5 1250.5,529C 1291.19,533.033 1319.35,553.867 1335,591.5C 1349.46,634.211 1342.46,672.878 1314,707.5C 1297.54,723.812 1277.71,733.312 1254.5,736C 1235.5,736.5 1216.5,736.667 1197.5,736.5C 1197.5,765.833 1197.5,795.167 1197.5,824.5C 1173.17,824.5 1148.83,824.5 1124.5,824.5C 1124.5,725.833 1124.5,627.167 1124.5,528.5 Z M 1197.5,599.5 C 1213.17,599.333 1228.84,599.5 1244.5,600C 1261.82,604.591 1270.82,615.924 1271.5,634C 1270.08,654.239 1259.42,665.573 1239.5,668C 1225.5,668.5 1211.5,668.667 1197.5,668.5C 1197.5,645.5 1197.5,622.5 1197.5,599.5 Z"/></g>
<g><path style="opacity:0.864" fill="#323e47" d="M 2043.5,528.5 C 2063.44,526.484 2081.44,531.318 2097.5,543C 2105.23,550.633 2110.23,559.8 2112.5,570.5C 2110.4,572.52 2108.07,572.854 2105.5,571.5C 2102.63,557.233 2094.63,547.066 2081.5,541C 2056.07,530.636 2032.41,533.636 2010.5,550C 1998.9,562.253 1995.73,576.42 2001,592.5C 2004.58,601.713 2011.08,607.88 2020.5,611C 2025.08,612.644 2029.74,613.978 2034.5,615C 2049.17,617 2063.83,619 2078.5,621C 2110.9,627.955 2122.73,647.455 2114,679.5C 2104.11,698.88 2088.28,710.047 2066.5,713C 2044,716.625 2023.67,711.625 2005.5,698C 1995.76,689.356 1990.76,678.523 1990.5,665.5C 1992.79,665.244 1994.96,665.577 1997,666.5C 2000.61,684.45 2011.11,696.617 2028.5,703C 2056.51,712.643 2081.01,707.143 2102,686.5C 2111.69,672.735 2112.69,658.402 2105,643.5C 2098.08,635.121 2089.25,629.955 2078.5,628C 2061.89,625.302 2045.22,622.969 2028.5,621C 1997.05,612.949 1985.55,593.115 1994,561.5C 2000.88,546.288 2012.38,536.455 2028.5,532C 2033.6,530.64 2038.6,529.474 2043.5,528.5 Z"/></g>
<g><path style="opacity:0.864" fill="#323e47" d="M 2421.5,528.5 C 2467.88,530.592 2498.38,553.592 2513,597.5C 2522.33,647.347 2504.49,683.847 2459.5,707C 2419.32,721.078 2384.48,712.911 2355,682.5C 2328.85,648.697 2325.52,612.697 2345,574.5C 2362.57,545.965 2388.07,530.632 2421.5,528.5 Z M 2416.5,535.5 C 2457.14,534.89 2485.97,552.89 2503,589.5C 2515.8,628.46 2506.97,661.627 2476.5,689C 2440.35,714.169 2404.69,713.502 2369.5,687C 2337.4,655.918 2330.9,620.084 2350,579.5C 2365.32,554.426 2387.49,539.759 2416.5,535.5 Z"/></g>
<g><path style="opacity:0.881" fill="#323e47" d="M 2605.5,528.5 C 2607.83,528.5 2610.17,528.5 2612.5,528.5C 2636.37,589.439 2660.03,650.439 2683.5,711.5C 2681.08,711.808 2678.74,711.474 2676.5,710.5C 2668.7,691.086 2660.7,671.752 2652.5,652.5C 2623.17,651.5 2593.84,651.167 2564.5,651.5C 2557.17,671.33 2549.33,690.996 2541,710.5C 2538.6,711.602 2536.1,711.769 2533.5,711C 2557.92,650.328 2581.92,589.495 2605.5,528.5 Z M 2608.5,540.5 C 2622.53,574.909 2636.2,609.575 2649.5,644.5C 2622.17,645.667 2594.84,645.833 2567.5,645C 2581.07,610.115 2594.74,575.282 2608.5,540.5 Z"/></g>
<g><path style="opacity:0.831" fill="#323e47" d="M 1738.5,530.5 C 1740.83,530.5 1743.17,530.5 1745.5,530.5C 1745.5,588.5 1745.5,646.5 1745.5,704.5C 1777.17,704.5 1808.83,704.5 1840.5,704.5C 1840.5,706.833 1840.5,709.167 1840.5,711.5C 1806.5,711.5 1772.5,711.5 1738.5,711.5C 1738.5,651.167 1738.5,590.833 1738.5,530.5 Z"/></g>
<g><path style="opacity:0.877" fill="#323e47" d="M 1868.5,531.5 C 1895.83,531.5 1923.17,531.5 1950.5,531.5C 1950.5,533.5 1950.5,535.5 1950.5,537.5C 1937.83,537.5 1925.17,537.5 1912.5,537.5C 1912.5,593.167 1912.5,648.833 1912.5,704.5C 1925.17,704.5 1937.83,704.5 1950.5,704.5C 1950.5,706.833 1950.5,709.167 1950.5,711.5C 1923.17,711.5 1895.83,711.5 1868.5,711.5C 1868.5,709.167 1868.5,706.833 1868.5,704.5C 1881.17,704.5 1893.83,704.5 1906.5,704.5C 1906.5,648.833 1906.5,593.167 1906.5,537.5C 1893.83,537.5 1881.17,537.5 1868.5,537.5C 1868.5,535.5 1868.5,533.5 1868.5,531.5 Z"/></g>
<g><path style="opacity:0.864" fill="#323e47" d="M 2163.5,531.5 C 2189.5,531.333 2215.5,531.5 2241.5,532C 2261.1,534.93 2272.93,546.096 2277,565.5C 2280.55,585.374 2274.38,601.374 2258.5,613.5C 2279.84,622.21 2290.51,638.21 2290.5,661.5C 2289.99,689.155 2276.33,705.655 2249.5,711C 2220.84,711.5 2192.17,711.667 2163.5,711.5C 2163.5,651.5 2163.5,591.5 2163.5,531.5 Z M 2170.5,538.5 C 2194.5,538.333 2218.5,538.5 2242.5,539C 2260.57,544.082 2270.23,556.082 2271.5,575C 2270.45,595.713 2259.78,608.047 2239.5,612C 2216.5,612.5 2193.5,612.667 2170.5,612.5C 2170.5,587.833 2170.5,563.167 2170.5,538.5 Z M 2170.5,618.5 C 2196.84,618.333 2223.17,618.5 2249.5,619C 2272.12,624.3 2283.79,638.633 2284.5,662C 2284.01,680.329 2275.68,693.662 2259.5,702C 2257.21,702.822 2254.88,703.489 2252.5,704C 2225.17,704.5 2197.84,704.667 2170.5,704.5C 2170.5,675.833 2170.5,647.167 2170.5,618.5 Z"/></g>
<g><path style="opacity:0.9" fill="#323e47" d="M 1872.5,774.5 C 1874.79,774.244 1876.96,774.577 1879,775.5C 1885.46,791.421 1891.63,807.421 1897.5,823.5C 1894.81,823.664 1892.15,823.497 1889.5,823C 1887.83,819.333 1886.17,815.667 1884.5,812C 1878.5,811.333 1872.5,811.333 1866.5,812C 1864.86,815.739 1863.53,819.573 1862.5,823.5C 1859.43,823.817 1856.43,823.484 1853.5,822.5C 1859.84,806.471 1866.17,790.471 1872.5,774.5 Z M 1875.5,788.5 C 1878.07,793.537 1880.07,798.871 1881.5,804.5C 1877.45,804.824 1873.45,804.491 1869.5,803.5C 1871.51,798.471 1873.51,793.471 1875.5,788.5 Z"/></g>
<g><path style="opacity:0.875" fill="#323e47" d="M 2005.5,774.5 C 2019.3,773.984 2027.97,780.317 2031.5,793.5C 2028.75,793.813 2026.09,793.48 2023.5,792.5C 2018.12,783.071 2010.45,780.571 2000.5,785C 1989.35,795.803 1990.02,805.803 2002.5,815C 2010.16,817.448 2016.66,815.615 2022,809.5C 2023.01,807.975 2023.51,806.308 2023.5,804.5C 2026.17,804.5 2028.83,804.5 2031.5,804.5C 2027.39,820.062 2017.39,826.229 2001.5,823C 1990.86,818.914 1985.19,811.08 1984.5,799.5C 1985.46,785.892 1992.46,777.559 2005.5,774.5 Z"/></g>
<g><path style="opacity:0.874" fill="#323e47" d="M 2115.5,774.5 C 2121.73,773.939 2127.73,774.772 2133.5,777C 2136.79,779.581 2138.79,782.914 2139.5,787C 2137.3,787.373 2135.14,787.873 2133,788.5C 2128.29,782.199 2122.46,780.699 2115.5,784C 2111.34,787.829 2111.67,791.163 2116.5,794C 2122.63,794.78 2128.63,796.113 2134.5,798C 2142.42,805.591 2142.42,813.258 2134.5,821C 2123.8,826.776 2114.3,825.276 2106,816.5C 2104.92,813.937 2104.42,811.271 2104.5,808.5C 2107.17,808.5 2109.83,808.5 2112.5,808.5C 2113.67,813.652 2117,816.318 2122.5,816.5C 2129.2,816.146 2132.2,812.812 2131.5,806.5C 2130.33,805.416 2129,804.583 2127.5,804C 2122.08,803.43 2116.74,802.43 2111.5,801C 2103.04,794.09 2102.37,786.424 2109.5,778C 2111.73,777.059 2113.73,775.892 2115.5,774.5 Z"/></g>
<g><path style="opacity:0.876" fill="#323e47" d="M 2186.5,774.5 C 2200.7,773.575 2209.37,779.909 2212.5,793.5C 2209.83,793.5 2207.17,793.5 2204.5,793.5C 2203.35,787.516 2199.68,784.016 2193.5,783C 2179.15,783.02 2172.99,790.186 2175,804.5C 2181.04,816.734 2189.87,819.234 2201.5,812C 2203.03,809.966 2204.36,807.799 2205.5,805.5C 2208.17,804.167 2210.83,804.167 2213.5,805.5C 2208.48,820.678 2198.15,826.511 2182.5,823C 2167.58,815.267 2163.08,803.434 2169,787.5C 2173.05,780.599 2178.88,776.266 2186.5,774.5 Z"/></g>
<g><path style="opacity:0.885" fill="#323e47" d="M 2256.5,774.5 C 2281.47,773.303 2291.64,784.97 2287,809.5C 2277.57,825.068 2264.74,828.568 2248.5,820C 2237.51,809.628 2235.68,797.794 2243,784.5C 2246.58,779.731 2251.08,776.397 2256.5,774.5 Z M 2258.5,782.5 C 2276.91,782.333 2283.41,791 2278,808.5C 2268.97,818.715 2259.64,819.049 2250,809.5C 2244.03,797.698 2246.87,788.698 2258.5,782.5 Z"/></g>
<g><path style="opacity:0.88" fill="#323e47" d="M 2369.5,774.5 C 2380.59,772.805 2389.76,776.138 2397,784.5C 2398.34,787.022 2399.17,789.689 2399.5,792.5C 2396.5,792.5 2393.5,792.5 2390.5,792.5C 2389.02,787.519 2385.68,784.353 2380.5,783C 2367.85,781.322 2360.85,786.822 2359.5,799.5C 2362.29,814.778 2370.95,819.611 2385.5,814C 2387.54,812.292 2389.21,810.292 2390.5,808C 2384.51,807.501 2378.51,807.334 2372.5,807.5C 2372.5,804.833 2372.5,802.167 2372.5,799.5C 2381.5,799.5 2390.5,799.5 2399.5,799.5C 2398.32,817.5 2388.66,825.667 2370.5,824C 2355.9,819.65 2349.73,809.817 2352,794.5C 2353.8,784.203 2359.64,777.537 2369.5,774.5 Z"/></g>
<g><path style="opacity:0.888" fill="#323e47" d="M 1738.5,775.5 C 1748.5,775.5 1758.5,775.5 1768.5,775.5C 1768.5,777.833 1768.5,780.167 1768.5,782.5C 1761.17,782.5 1753.83,782.5 1746.5,782.5C 1746.5,786.833 1746.5,791.167 1746.5,795.5C 1752.83,795.5 1759.17,795.5 1765.5,795.5C 1765.5,798.167 1765.5,800.833 1765.5,803.5C 1759.17,803.5 1752.83,803.5 1746.5,803.5C 1746.5,810.167 1746.5,816.833 1746.5,823.5C 1743.83,823.5 1741.17,823.5 1738.5,823.5C 1738.5,807.5 1738.5,791.5 1738.5,775.5 Z"/></g>
<g><path style="opacity:0.891" fill="#323e47" d="M 1793.5,775.5 C 1802.58,775.086 1811.58,775.586 1820.5,777C 1828.52,784.509 1829.52,792.842 1823.5,802C 1821.33,803.586 1819,804.92 1816.5,806C 1820.79,811.958 1825.46,817.624 1830.5,823C 1826.83,823.667 1823.17,823.667 1819.5,823C 1814.71,816.541 1809.54,810.374 1804,804.5C 1802.87,802.655 1802.37,800.655 1802.5,798.5C 1806.51,798.666 1810.51,798.499 1814.5,798C 1820.65,793.748 1820.99,789.081 1815.5,784C 1810.91,782.775 1806.25,782.275 1801.5,782.5C 1801.5,796.167 1801.5,809.833 1801.5,823.5C 1798.83,823.5 1796.17,823.5 1793.5,823.5C 1793.5,807.5 1793.5,791.5 1793.5,775.5 Z"/></g>
<g><path style="opacity:0.913" fill="#323e47" d="M 1922.5,775.5 C 1924.92,775.192 1927.26,775.526 1929.5,776.5C 1936.53,786.363 1943.36,796.363 1950,806.5C 1950.5,796.172 1950.67,785.839 1950.5,775.5C 1953.17,775.5 1955.83,775.5 1958.5,775.5C 1958.5,791.5 1958.5,807.5 1958.5,823.5C 1955.88,823.768 1953.38,823.435 1951,822.5C 1944.58,812.659 1937.91,802.993 1931,793.5C 1930.5,803.494 1930.33,813.494 1930.5,823.5C 1927.83,823.5 1925.17,823.5 1922.5,823.5C 1922.5,807.5 1922.5,791.5 1922.5,775.5 Z"/></g>
<g><path style="opacity:0.897" fill="#323e47" d="M 2054.5,775.5 C 2063.17,775.5 2071.83,775.5 2080.5,775.5C 2080.5,777.833 2080.5,780.167 2080.5,782.5C 2077.5,782.5 2074.5,782.5 2071.5,782.5C 2071.5,793.833 2071.5,805.167 2071.5,816.5C 2074.5,816.5 2077.5,816.5 2080.5,816.5C 2080.5,818.833 2080.5,821.167 2080.5,823.5C 2071.83,823.5 2063.17,823.5 2054.5,823.5C 2054.5,821.167 2054.5,818.833 2054.5,816.5C 2057.5,816.5 2060.5,816.5 2063.5,816.5C 2063.5,805.167 2063.5,793.833 2063.5,782.5C 2060.5,782.5 2057.5,782.5 2054.5,782.5C 2054.5,780.167 2054.5,777.833 2054.5,775.5 Z"/></g>
<g><path style="opacity:0.92" fill="#323e47" d="M 2426.5,775.5 C 2436.5,775.5 2446.5,775.5 2456.5,775.5C 2456.5,777.833 2456.5,780.167 2456.5,782.5C 2449.17,782.5 2441.83,782.5 2434.5,782.5C 2434.5,786.833 2434.5,791.167 2434.5,795.5C 2441.5,795.5 2448.5,795.5 2455.5,795.5C 2455.5,798.167 2455.5,800.833 2455.5,803.5C 2448.5,803.5 2441.5,803.5 2434.5,803.5C 2434.5,807.5 2434.5,811.5 2434.5,815.5C 2441.83,815.5 2449.17,815.5 2456.5,815.5C 2456.5,818.167 2456.5,820.833 2456.5,823.5C 2446.5,823.5 2436.5,823.5 2426.5,823.5C 2426.5,807.5 2426.5,791.5 2426.5,775.5 Z"/></g>
<g><path style="opacity:0.905" fill="#323e47" d="M 2483.5,775.5 C 2485.92,775.192 2488.26,775.526 2490.5,776.5C 2497.53,786.363 2504.36,796.363 2511,806.5C 2511.5,796.172 2511.67,785.839 2511.5,775.5C 2514.17,775.5 2516.83,775.5 2519.5,775.5C 2519.5,791.5 2519.5,807.5 2519.5,823.5C 2516.88,823.768 2514.38,823.435 2512,822.5C 2505.58,812.659 2498.91,802.993 2492,793.5C 2491.5,803.494 2491.33,813.494 2491.5,823.5C 2488.83,823.5 2486.17,823.5 2483.5,823.5C 2483.5,807.5 2483.5,791.5 2483.5,775.5 Z"/></g>
<g><path style="opacity:0.935" fill="#323e47" d="M 2545.5,775.5 C 2557.5,775.5 2569.5,775.5 2581.5,775.5C 2581.5,777.833 2581.5,780.167 2581.5,782.5C 2576.83,782.5 2572.17,782.5 2567.5,782.5C 2567.5,796.167 2567.5,809.833 2567.5,823.5C 2564.83,823.5 2562.17,823.5 2559.5,823.5C 2559.5,809.833 2559.5,796.167 2559.5,782.5C 2554.83,782.5 2550.17,782.5 2545.5,782.5C 2545.5,780.167 2545.5,777.833 2545.5,775.5 Z"/></g>
<g><path style="opacity:0.897" fill="#323e47" d="M 2607.5,775.5 C 2616.17,775.5 2624.83,775.5 2633.5,775.5C 2633.5,777.833 2633.5,780.167 2633.5,782.5C 2630.5,782.5 2627.5,782.5 2624.5,782.5C 2624.5,793.833 2624.5,805.167 2624.5,816.5C 2627.5,816.5 2630.5,816.5 2633.5,816.5C 2633.5,818.833 2633.5,821.167 2633.5,823.5C 2624.83,823.5 2616.17,823.5 2607.5,823.5C 2607.5,821.167 2607.5,818.833 2607.5,816.5C 2610.5,816.5 2613.5,816.5 2616.5,816.5C 2616.5,805.167 2616.5,793.833 2616.5,782.5C 2613.5,782.5 2610.5,782.5 2607.5,782.5C 2607.5,780.167 2607.5,777.833 2607.5,775.5 Z"/></g>
<g><path style="opacity:0.928" fill="#323e47" d="M 2658.5,775.5 C 2661.17,775.5 2663.83,775.5 2666.5,775.5C 2666.5,789.167 2666.5,802.833 2666.5,816.5C 2674.17,816.5 2681.83,816.5 2689.5,816.5C 2689.5,818.833 2689.5,821.167 2689.5,823.5C 2679.17,823.5 2668.83,823.5 2658.5,823.5C 2658.5,807.5 2658.5,791.5 2658.5,775.5 Z"/></g>
</svg>
